<mxfile host="app.diagrams.net" agent="Mozilla/5.0 (Windows NT 10.0; Win64; x64) AppleWebKit/537.36 (KHTML, like Gecko) Chrome/130.0.0.0 Safari/537.36" version="24.8.3">
  <diagram name="Page-1" id="WzabvNY0LjEx_yYHudcU">
    <mxGraphModel dx="1674" dy="833" grid="1" gridSize="10" guides="1" tooltips="1" connect="1" arrows="1" fold="1" page="1" pageScale="1" pageWidth="827" pageHeight="1169" math="0" shadow="0">
      <root>
        <mxCell id="0" />
        <mxCell id="1" parent="0" />
        <mxCell id="KUvSwAQs7oRMRPazHoHw-3" value="" style="edgeStyle=orthogonalEdgeStyle;rounded=0;orthogonalLoop=1;jettySize=auto;html=1;" edge="1" parent="1" source="KUvSwAQs7oRMRPazHoHw-1" target="KUvSwAQs7oRMRPazHoHw-2">
          <mxGeometry relative="1" as="geometry" />
        </mxCell>
        <mxCell id="KUvSwAQs7oRMRPazHoHw-1" value="Start" style="ellipse;whiteSpace=wrap;html=1;" vertex="1" parent="1">
          <mxGeometry x="340" y="20" width="120" height="80" as="geometry" />
        </mxCell>
        <mxCell id="KUvSwAQs7oRMRPazHoHw-5" value="" style="edgeStyle=orthogonalEdgeStyle;rounded=0;orthogonalLoop=1;jettySize=auto;html=1;" edge="1" parent="1" source="KUvSwAQs7oRMRPazHoHw-2" target="KUvSwAQs7oRMRPazHoHw-4">
          <mxGeometry relative="1" as="geometry" />
        </mxCell>
        <mxCell id="KUvSwAQs7oRMRPazHoHw-2" value="&lt;div&gt;Ввід цілих чисел&lt;/div&gt;Enter first number a&lt;div&gt;Enter second number b&lt;/div&gt;" style="shape=parallelogram;perimeter=parallelogramPerimeter;whiteSpace=wrap;html=1;fixedSize=1;" vertex="1" parent="1">
          <mxGeometry x="305" y="130" width="190" height="60" as="geometry" />
        </mxCell>
        <mxCell id="KUvSwAQs7oRMRPazHoHw-7" value="" style="edgeStyle=orthogonalEdgeStyle;rounded=0;orthogonalLoop=1;jettySize=auto;html=1;" edge="1" parent="1" source="KUvSwAQs7oRMRPazHoHw-4" target="KUvSwAQs7oRMRPazHoHw-6">
          <mxGeometry relative="1" as="geometry" />
        </mxCell>
        <mxCell id="KUvSwAQs7oRMRPazHoHw-4" value="&lt;div&gt;Ввід комплексних чисел&lt;/div&gt;Enter real and imaginary part of the first complex number&lt;div&gt;Enter real and imaginary part of the second complex number&lt;/div&gt;" style="shape=parallelogram;perimeter=parallelogramPerimeter;whiteSpace=wrap;html=1;fixedSize=1;" vertex="1" parent="1">
          <mxGeometry x="267.5" y="210" width="265" height="120" as="geometry" />
        </mxCell>
        <mxCell id="KUvSwAQs7oRMRPazHoHw-11" value="" style="edgeStyle=orthogonalEdgeStyle;rounded=0;orthogonalLoop=1;jettySize=auto;html=1;" edge="1" parent="1" source="KUvSwAQs7oRMRPazHoHw-6" target="KUvSwAQs7oRMRPazHoHw-10">
          <mxGeometry relative="1" as="geometry" />
        </mxCell>
        <mxCell id="KUvSwAQs7oRMRPazHoHw-6" value="Sum(a, b)" style="shape=process;whiteSpace=wrap;html=1;backgroundOutline=1;" vertex="1" parent="1">
          <mxGeometry x="340" y="360" width="120" height="60" as="geometry" />
        </mxCell>
        <mxCell id="KUvSwAQs7oRMRPazHoHw-13" value="" style="edgeStyle=orthogonalEdgeStyle;rounded=0;orthogonalLoop=1;jettySize=auto;html=1;" edge="1" parent="1" source="KUvSwAQs7oRMRPazHoHw-10" target="KUvSwAQs7oRMRPazHoHw-12">
          <mxGeometry relative="1" as="geometry" />
        </mxCell>
        <mxCell id="KUvSwAQs7oRMRPazHoHw-10" value="Sum(a, b)" style="shape=parallelogram;perimeter=parallelogramPerimeter;whiteSpace=wrap;html=1;fixedSize=1;" vertex="1" parent="1">
          <mxGeometry x="340" y="440" width="120" height="60" as="geometry" />
        </mxCell>
        <mxCell id="KUvSwAQs7oRMRPazHoHw-15" value="" style="edgeStyle=orthogonalEdgeStyle;rounded=0;orthogonalLoop=1;jettySize=auto;html=1;" edge="1" parent="1" source="KUvSwAQs7oRMRPazHoHw-12" target="KUvSwAQs7oRMRPazHoHw-14">
          <mxGeometry relative="1" as="geometry" />
        </mxCell>
        <mxCell id="KUvSwAQs7oRMRPazHoHw-12" value="Sum(num1, num2)" style="shape=process;whiteSpace=wrap;html=1;backgroundOutline=1;" vertex="1" parent="1">
          <mxGeometry x="340" y="525" width="120" height="60" as="geometry" />
        </mxCell>
        <mxCell id="KUvSwAQs7oRMRPazHoHw-17" value="" style="edgeStyle=orthogonalEdgeStyle;rounded=0;orthogonalLoop=1;jettySize=auto;html=1;" edge="1" parent="1" source="KUvSwAQs7oRMRPazHoHw-14" target="KUvSwAQs7oRMRPazHoHw-16">
          <mxGeometry relative="1" as="geometry" />
        </mxCell>
        <mxCell id="KUvSwAQs7oRMRPazHoHw-14" value="Sum(num1, num2)" style="shape=parallelogram;perimeter=parallelogramPerimeter;whiteSpace=wrap;html=1;fixedSize=1;" vertex="1" parent="1">
          <mxGeometry x="340" y="610" width="120" height="60" as="geometry" />
        </mxCell>
        <mxCell id="KUvSwAQs7oRMRPazHoHw-16" value="End" style="ellipse;whiteSpace=wrap;html=1;" vertex="1" parent="1">
          <mxGeometry x="345" y="710" width="110" height="60" as="geometry" />
        </mxCell>
        <mxCell id="KUvSwAQs7oRMRPazHoHw-20" value="" style="edgeStyle=orthogonalEdgeStyle;rounded=0;orthogonalLoop=1;jettySize=auto;html=1;" edge="1" parent="1" source="KUvSwAQs7oRMRPazHoHw-18" target="KUvSwAQs7oRMRPazHoHw-19">
          <mxGeometry relative="1" as="geometry" />
        </mxCell>
        <mxCell id="KUvSwAQs7oRMRPazHoHw-18" value="Sum(a ,b)" style="ellipse;whiteSpace=wrap;html=1;" vertex="1" parent="1">
          <mxGeometry x="610" y="20" width="120" height="80" as="geometry" />
        </mxCell>
        <mxCell id="KUvSwAQs7oRMRPazHoHw-22" value="" style="edgeStyle=orthogonalEdgeStyle;rounded=0;orthogonalLoop=1;jettySize=auto;html=1;" edge="1" parent="1" source="KUvSwAQs7oRMRPazHoHw-19" target="KUvSwAQs7oRMRPazHoHw-21">
          <mxGeometry relative="1" as="geometry" />
        </mxCell>
        <mxCell id="KUvSwAQs7oRMRPazHoHw-19" value="result = a + b" style="whiteSpace=wrap;html=1;" vertex="1" parent="1">
          <mxGeometry x="610" y="120" width="120" height="60" as="geometry" />
        </mxCell>
        <mxCell id="KUvSwAQs7oRMRPazHoHw-27" value="" style="edgeStyle=orthogonalEdgeStyle;rounded=0;orthogonalLoop=1;jettySize=auto;html=1;" edge="1" parent="1" source="KUvSwAQs7oRMRPazHoHw-21" target="KUvSwAQs7oRMRPazHoHw-26">
          <mxGeometry relative="1" as="geometry" />
        </mxCell>
        <mxCell id="KUvSwAQs7oRMRPazHoHw-21" value="return result" style="shape=parallelogram;perimeter=parallelogramPerimeter;whiteSpace=wrap;html=1;fixedSize=1;" vertex="1" parent="1">
          <mxGeometry x="610" y="210" width="120" height="60" as="geometry" />
        </mxCell>
        <mxCell id="KUvSwAQs7oRMRPazHoHw-26" value="End" style="ellipse;whiteSpace=wrap;html=1;" vertex="1" parent="1">
          <mxGeometry x="610" y="300" width="120" height="60" as="geometry" />
        </mxCell>
        <mxCell id="KUvSwAQs7oRMRPazHoHw-28" value="" style="edgeStyle=orthogonalEdgeStyle;rounded=0;orthogonalLoop=1;jettySize=auto;html=1;" edge="1" parent="1" source="KUvSwAQs7oRMRPazHoHw-29" target="KUvSwAQs7oRMRPazHoHw-31">
          <mxGeometry relative="1" as="geometry" />
        </mxCell>
        <mxCell id="KUvSwAQs7oRMRPazHoHw-29" value="Sum(num1,num2)" style="ellipse;whiteSpace=wrap;html=1;" vertex="1" parent="1">
          <mxGeometry x="80" y="20" width="120" height="80" as="geometry" />
        </mxCell>
        <mxCell id="KUvSwAQs7oRMRPazHoHw-30" value="" style="edgeStyle=orthogonalEdgeStyle;rounded=0;orthogonalLoop=1;jettySize=auto;html=1;" edge="1" parent="1" source="KUvSwAQs7oRMRPazHoHw-31" target="KUvSwAQs7oRMRPazHoHw-33">
          <mxGeometry relative="1" as="geometry" />
        </mxCell>
        <mxCell id="KUvSwAQs7oRMRPazHoHw-31" value="result = num1 + num2" style="whiteSpace=wrap;html=1;" vertex="1" parent="1">
          <mxGeometry x="80" y="120" width="120" height="60" as="geometry" />
        </mxCell>
        <mxCell id="KUvSwAQs7oRMRPazHoHw-32" value="" style="edgeStyle=orthogonalEdgeStyle;rounded=0;orthogonalLoop=1;jettySize=auto;html=1;" edge="1" parent="1" source="KUvSwAQs7oRMRPazHoHw-33" target="KUvSwAQs7oRMRPazHoHw-34">
          <mxGeometry relative="1" as="geometry" />
        </mxCell>
        <mxCell id="KUvSwAQs7oRMRPazHoHw-33" value="return result" style="shape=parallelogram;perimeter=parallelogramPerimeter;whiteSpace=wrap;html=1;fixedSize=1;" vertex="1" parent="1">
          <mxGeometry x="80" y="210" width="120" height="60" as="geometry" />
        </mxCell>
        <mxCell id="KUvSwAQs7oRMRPazHoHw-34" value="End" style="ellipse;whiteSpace=wrap;html=1;" vertex="1" parent="1">
          <mxGeometry x="80" y="300" width="120" height="60" as="geometry" />
        </mxCell>
      </root>
    </mxGraphModel>
  </diagram>
</mxfile>
